<?xml version="1.0" encoding="UTF-8"?><svg xmlns="http://www.w3.org/2000/svg" xmlns:xlink="http://www.w3.org/1999/xlink" viewBox="0 0 466.01 96.7"><defs><style>.cls-1{fill:#3ca4cd;}.cls-2{fill:url(#linear-gradient-2);}.cls-2,.cls-3,.cls-4,.cls-5{mix-blend-mode:multiply;opacity:.3;}.cls-3{fill:url(#linear-gradient);}.cls-6{fill:#0a0a39;}.cls-7{isolation:isolate;}.cls-4{fill:url(#linear-gradient-4);}.cls-8{fill:#ff7000;}.cls-5{fill:url(#linear-gradient-3);}</style><linearGradient id="linear-gradient" x1="-2535.09" y1="1523.69" x2="-2517.99" y2="1523.69" gradientTransform="translate(2887.6 759.35) rotate(45)" gradientUnits="userSpaceOnUse"><stop offset="0" stop-color="#fff"/><stop offset="1" stop-color="#4c5ca9"/></linearGradient><linearGradient id="linear-gradient-2" x1="-2497.56" y1="1486.03" x2="-2480.3" y2="1486.03" gradientTransform="translate(2887.6 759.35) rotate(45)" gradientUnits="userSpaceOnUse"><stop offset="0" stop-color="#fff"/><stop offset="1" stop-color="#000"/></linearGradient><linearGradient id="linear-gradient-3" x1="-787.72" y1="1205.41" x2="-770.74" y2="1205.41" gradientTransform="translate(-1307.03 375.84) rotate(-135)" xlink:href="#linear-gradient-2"/><linearGradient id="linear-gradient-4" x1="-750.09" y1="1167.79" x2="-732.99" y2="1167.79" gradientTransform="translate(-1307.03 375.84) rotate(-135)" xlink:href="#linear-gradient"/></defs><g class="cls-7"><g id="Layer_2"><g id="Layer_1-2"><g><g><path class="cls-6" d="M160.32,33.13c2.86-.82,6.58-1.6,11.17-2.33,4.58-.74,9.65-1.1,15.22-1.1,5.23,0,9.61,.72,13.13,2.15,3.52,1.43,6.32,3.44,8.41,6.01s3.56,5.69,4.42,9.33c.86,3.64,1.29,7.63,1.29,11.97v36.08h-14.85V61.48c0-3.44-.23-6.36-.67-8.77-.45-2.41-1.19-4.38-2.21-5.89-1.02-1.51-2.41-2.62-4.17-3.31-1.76-.69-3.91-1.04-6.44-1.04-1.88,0-3.85,.12-5.89,.37-2.05,.25-3.56,.45-4.54,.61v51.79h-14.85V33.13Z"/><path class="cls-6" d="M248.68,12.27c0,2.78-.9,4.99-2.7,6.63-1.8,1.64-3.93,2.45-6.38,2.45s-4.71-.82-6.5-2.45c-1.8-1.64-2.7-3.84-2.7-6.63s.9-5.11,2.7-6.75c1.8-1.64,3.97-2.45,6.5-2.45s4.58,.82,6.38,2.45c1.8,1.64,2.7,3.89,2.7,6.75Zm-1.6,82.96h-14.85V31.05h14.85V95.23Z"/><path class="cls-6" d="M289.03,50.7l13.64-19.65h15.58l-21.55,30.74c4.5,5.66,8.82,11.37,12.95,17.14,4.13,5.78,7.53,11.21,10.2,16.29h-16.17c-.75-1.5-1.71-3.16-2.89-4.96-1.18-1.8-2.44-3.68-3.78-5.63-1.34-1.95-2.74-3.88-4.21-5.8-1.46-1.91-2.89-3.72-4.27-5.41-2.88,3.34-5.69,7.03-8.44,11.07-2.75,4.04-5.03,7.62-6.84,10.73h-15.14c1.21-2.46,2.7-5.06,4.47-7.79,1.77-2.73,3.66-5.51,5.68-8.36,2.02-2.85,4.1-5.69,6.25-8.54,2.15-2.85,4.27-5.55,6.38-8.12l-21.79-31.37h16.32l13.6,19.65Z"/><path class="cls-6" d="M330.16,14.11l14.85-2.45V31.05h22.83v12.4h-22.83v26.14c0,5.15,.82,8.84,2.45,11.04,1.64,2.21,4.42,3.31,8.34,3.31,2.7,0,5.09-.29,7.18-.86,2.09-.57,3.74-1.1,4.97-1.59l2.45,11.78c-1.72,.74-3.97,1.49-6.75,2.27-2.78,.78-6.06,1.17-9.82,1.17-4.58,0-8.41-.61-11.47-1.84-3.07-1.23-5.5-3.01-7.3-5.34-1.8-2.33-3.07-5.15-3.8-8.47s-1.1-7.1-1.1-11.35V14.11Z"/><path class="cls-6" d="M404.53,96.46c-4.42-.08-8.08-.57-10.98-1.47-2.91-.9-5.22-2.19-6.93-3.87-1.72-1.68-2.93-3.76-3.62-6.26-.7-2.49-1.04-5.34-1.04-8.53V2.45l14.85-2.45V73.51c0,1.8,.14,3.31,.43,4.54,.29,1.23,.8,2.27,1.53,3.13,.74,.86,1.74,1.52,3.01,1.96,1.27,.45,2.88,.8,4.85,1.04l-2.09,12.27Z"/><path class="cls-6" d="M440,29.45c4.91,0,9.04,.61,12.39,1.84,3.35,1.23,6.03,2.95,8.04,5.15,2,2.21,3.44,4.89,4.29,8.04,.86,3.15,1.29,6.61,1.29,10.37v38.9c-2.29,.49-5.75,1.08-10.37,1.78-4.62,.69-9.84,1.04-15.65,1.04-3.85,0-7.36-.37-10.55-1.1-3.19-.74-5.91-1.92-8.16-3.56-2.25-1.64-4.01-3.76-5.28-6.38-1.27-2.62-1.9-5.85-1.9-9.69s.71-6.79,2.15-9.33c1.43-2.53,3.37-4.6,5.83-6.2,2.45-1.59,5.3-2.74,8.53-3.44,3.23-.69,6.61-1.04,10.12-1.04,1.64,0,3.35,.1,5.15,.31,1.8,.21,3.72,.55,5.77,1.04v-2.45c0-1.72-.21-3.35-.61-4.91-.41-1.55-1.13-2.92-2.15-4.11-1.02-1.18-2.37-2.11-4.05-2.76-1.68-.65-3.79-.98-6.32-.98-3.44,0-6.59,.25-9.45,.74-2.87,.49-5.2,1.06-7,1.72l-1.84-12.03c1.88-.65,4.62-1.31,8.22-1.96,3.6-.65,7.44-.98,11.54-.98Zm1.23,55.35c4.58,0,8.06-.25,10.43-.74v-16.45c-.82-.25-2.01-.49-3.56-.74-1.56-.25-3.27-.37-5.15-.37-1.64,0-3.29,.12-4.97,.37-1.68,.25-3.19,.7-4.54,1.35-1.35,.66-2.44,1.58-3.25,2.76-.82,1.19-1.23,2.68-1.23,4.48,0,3.52,1.1,5.95,3.31,7.3s5.19,2.03,8.96,2.03Z"/></g><g><path class="cls-8" d="M23.68,62.3L0,33.11c5.34-6.7,14.04-6.75,19.42-.11l13.99,17.25-9.73,12.06Z"/><polygon class="cls-3" points="23.68 62.3 13.93 50.23 23.64 38.15 33.39 50.22 23.68 62.3"/><path class="cls-1" d="M74.69,35.5l12.01,14.81-9.75,12.03-11.92-14.7c-2.81-3.46-7.36-3.45-10.16,.03L19.47,91.7c-5.36,6.67-14.06,6.67-19.42,0l23.6-29.36,9.71-12.08,11.8-14.68c8.12-10.11,21.37-10.15,29.53-.08Z"/><polygon class="cls-2" points="76.94 62.34 67.12 50.12 76.83 38.04 86.7 50.31 76.94 62.34"/><path class="cls-1" d="M96.34,62.48l23.65,29.16c-5.34,6.7-14.04,6.75-19.42,.11l-13.99-17.25,9.75-12.02Z"/><polygon class="cls-5" points="96.33 62.47 106.05 74.45 96.31 86.5 86.59 74.5 96.33 62.47"/><path class="cls-8" d="M119.99,33.32l-23.54,29.02-9.75,12.03-12.01,14.81c-8.16,10.06-21.41,10.03-29.53-.08l-11.8-14.67,9.71-12.08,11.79,14.68c2.79,3.47,7.35,3.49,10.16,.03l11.92-14.71,9.75-12.03,13.87-17.11c5.39-6.64,14.08-6.59,19.42,.11Z"/><polygon class="cls-4" points="43.07 62.34 52.78 74.44 43.07 86.52 33.36 74.42 43.07 62.34"/></g></g></g></g></g></svg>