<?xml version="1.0" encoding="UTF-8"?><svg id="Layer_2" xmlns="http://www.w3.org/2000/svg" viewBox="0 0 332.3 68.96"><defs><style>.cls-1{fill:#0a0a39;}</style></defs><g id="Layer_1-2"><g><g><path class="cls-1" d="M114.32,23.63c2.04-.58,4.7-1.14,7.96-1.66,3.27-.52,6.88-.79,10.85-.79,3.73,0,6.85,.51,9.36,1.53,2.51,1.02,4.51,2.45,5.99,4.29,1.49,1.84,2.54,4.06,3.15,6.65,.61,2.6,.92,5.44,.92,8.53v25.73h-10.59v-24.06c0-2.45-.16-4.54-.48-6.26-.32-1.72-.85-3.12-1.58-4.2-.73-1.08-1.72-1.87-2.97-2.36-1.26-.5-2.79-.74-4.59-.74-1.34,0-2.74,.09-4.2,.26-1.46,.18-2.54,.32-3.24,.44v36.93h-10.59V23.63Z"/><path class="cls-1" d="M177.33,8.75c0,1.98-.64,3.56-1.92,4.73-1.28,1.17-2.8,1.75-4.55,1.75s-3.36-.58-4.64-1.75c-1.28-1.17-1.93-2.74-1.93-4.73s.64-3.65,1.93-4.81c1.28-1.17,2.83-1.75,4.64-1.75s3.27,.58,4.55,1.75c1.28,1.17,1.92,2.77,1.92,4.81Zm-1.14,59.16h-10.59V22.14h10.59v45.77Z"/><path class="cls-1" d="M206.1,36.15l9.73-14.01h11.11l-15.37,21.92c3.21,4.03,6.29,8.11,9.23,12.23,2.94,4.12,5.37,7.99,7.27,11.62h-11.53c-.53-1.07-1.22-2.25-2.06-3.54-.84-1.29-1.74-2.62-2.7-4.01-.96-1.39-1.96-2.77-3-4.13-1.04-1.36-2.06-2.65-3.04-3.86-2.05,2.38-4.06,5.01-6.02,7.89s-3.59,5.43-4.88,7.65h-10.8c.86-1.76,1.92-3.61,3.19-5.55s2.61-3.93,4.05-5.96c1.44-2.03,2.92-4.06,4.45-6.09,1.53-2.03,3.05-3.96,4.55-5.79l-15.54-22.37h11.64l9.7,14.01Z"/><path class="cls-1" d="M235.43,10.06l10.59-1.75v13.83h16.28v8.84h-16.28v18.64c0,3.67,.58,6.3,1.75,7.88,1.17,1.58,3.15,2.36,5.95,2.36,1.93,0,3.63-.2,5.12-.61,1.49-.41,2.67-.79,3.54-1.14l1.75,8.4c-1.23,.53-2.83,1.07-4.81,1.62-1.98,.55-4.32,.83-7,.83-3.27,0-6-.44-8.18-1.31s-3.92-2.14-5.21-3.81c-1.28-1.66-2.19-3.67-2.71-6.04-.53-2.36-.79-5.06-.79-8.09V10.06Z"/><path class="cls-1" d="M288.46,68.78c-3.15-.06-5.76-.41-7.83-1.05-2.07-.64-3.72-1.56-4.94-2.76-1.23-1.2-2.09-2.68-2.58-4.46-.5-1.78-.74-3.81-.74-6.08V1.75l10.59-1.75V52.42c0,1.28,.1,2.36,.31,3.24,.2,.88,.57,1.62,1.09,2.23s1.24,1.08,2.14,1.4c.9,.32,2.06,.57,3.46,.74l-1.49,8.75Z"/><path class="cls-1" d="M313.75,21c3.5,0,6.45,.44,8.84,1.31,2.39,.88,4.3,2.1,5.73,3.68s2.45,3.49,3.06,5.73c.61,2.25,.92,4.71,.92,7.39v27.74c-1.63,.35-4.1,.77-7.39,1.27-3.3,.5-7.02,.74-11.16,.74-2.74,0-5.25-.26-7.53-.79-2.27-.52-4.21-1.37-5.82-2.54s-2.86-2.68-3.76-4.55c-.91-1.87-1.36-4.17-1.36-6.91s.51-4.84,1.53-6.65c1.02-1.81,2.41-3.28,4.16-4.42,1.75-1.14,3.78-1.95,6.08-2.45,2.3-.49,4.71-.74,7.22-.74,1.17,0,2.39,.07,3.68,.22,1.28,.15,2.65,.39,4.11,.74v-1.75c0-1.23-.15-2.39-.44-3.5-.29-1.11-.8-2.09-1.53-2.93-.73-.84-1.69-1.5-2.89-1.97-1.2-.47-2.7-.7-4.51-.7-2.45,0-4.7,.17-6.74,.52-2.04,.35-3.71,.76-4.99,1.23l-1.31-8.58c1.34-.47,3.29-.93,5.86-1.4,2.57-.47,5.31-.7,8.23-.7Zm.88,39.47c3.27,0,5.75-.17,7.44-.52v-11.73c-.58-.17-1.43-.35-2.54-.53-1.11-.17-2.33-.26-3.68-.26-1.17,0-2.35,.09-3.54,.26-1.2,.18-2.28,.5-3.24,.96-.96,.47-1.74,1.12-2.32,1.97-.58,.85-.88,1.91-.88,3.19,0,2.51,.79,4.24,2.36,5.21,1.58,.96,3.7,1.44,6.39,1.44Z"/></g><path class="cls-1" d="M68.78,44.45l16.78-20.7c-3.81-4.78-10.01-4.81-13.85-.08l-9.88,12.19-8.58-10.55c-5.82-7.18-15.27-7.15-21.06,.06l-8.38,10.43-9.97-12.27c-3.84-4.74-10.04-4.7-13.85,.08l16.88,20.82-.02,.03L.04,65.39c3.82,4.76,10.02,4.76,13.85,0l9.9-12.32,8.41,10.46c5.79,7.21,15.24,7.23,21.06,.06l8.48-10.46,9.98,12.29c3.84,4.74,10.04,4.7,13.85-.08l-16.88-20.78,.09-.12Zm-22.42,10.49c-2,2.47-5.25,2.46-7.24-.02l-8.42-10.46,8.42-10.47c1.99-2.48,5.24-2.49,7.24-.02l8.5,10.49-8.5,10.48Z"/></g></g></svg>